HIERARCHY
ROOT Hips
{
	OFFSET 0.00000 0.00000 0.00000
	CHANNELS 6 Xposition Yposition Zposition Zrotation Yrotation Xrotation 
	JOINT LHipJoint
	{
		OFFSET 0 0 0
		CHANNELS 3 Zrotation Yrotation Xrotation
		JOINT LeftUpLeg
		{
			OFFSET 1.75344 -1.53157 0.77399
			CHANNELS 3 Zrotation Yrotation Xrotation
			JOINT LeftLeg
			{
				OFFSET 2.25415 -6.19323 0.00000
				CHANNELS 3 Zrotation Yrotation Xrotation
				JOINT LeftFoot
				{
					OFFSET 2.30342 -6.32861 0.00000
					CHANNELS 3 Zrotation Yrotation Xrotation
					JOINT LeftToeBase
					{
						OFFSET 0.10958 -0.30108 1.49206
						CHANNELS 3 Zrotation Yrotation Xrotation
						End Site
						{
							OFFSET 0.00000 -0.00000 0.77783
						}
					}
				}
			}
		}
	}
	JOINT RHipJoint
	{
		OFFSET 0 0 0
		CHANNELS 3 Zrotation Yrotation Xrotation
		JOINT RightUpLeg
		{
			OFFSET -1.81912 -1.53156 0.77399
			CHANNELS 3 Zrotation Yrotation Xrotation
			JOINT RightLeg
			{
				OFFSET -2.22882 -6.12365 0.00000
				CHANNELS 3 Zrotation Yrotation Xrotation
				JOINT RightFoot
				{
					OFFSET -2.21943 -6.09785 0.00000
					CHANNELS 3 Zrotation Yrotation Xrotation
					JOINT RightToeBase
					{
						OFFSET -0.18931 -0.52012 1.59379
						CHANNELS 3 Zrotation Yrotation Xrotation
						End Site
						{
							OFFSET -0.00000 -0.00000 0.84686
						}
					}
				}
			}
		}
	}
	JOINT LowerBack
	{
		OFFSET 0 0 0
		CHANNELS 3 Zrotation Yrotation Xrotation
		JOINT Spine
		{
			OFFSET -0.00200 1.66634 -0.14248
			CHANNELS 3 Zrotation Yrotation Xrotation
			JOINT Spine1
			{
				OFFSET -0.00875 1.64542 0.09514
				CHANNELS 3 Zrotation Yrotation Xrotation
				JOINT Neck
				{
					OFFSET 0 0 0
					CHANNELS 3 Zrotation Yrotation Xrotation
					JOINT Neck1
					{
						OFFSET 0.02257 1.59605 0.00839
						CHANNELS 3 Zrotation Yrotation Xrotation
						JOINT Head
						{
							OFFSET -0.10214 1.57530 -0.23335
							CHANNELS 3 Zrotation Yrotation Xrotation
							End Site
							{
								OFFSET -0.03588 1.60717 -0.08062
							}
						}
					}
				}
				JOINT LeftShoulder
				{
					OFFSET 0 0 0
					CHANNELS 3 Zrotation Yrotation Xrotation
					JOINT LeftArm
					{
						OFFSET 2.54983 1.10186 0.40078
						CHANNELS 3 Zrotation Yrotation Xrotation
						JOINT LeftForeArm
						{
							OFFSET 4.28840 -0.00000 0.00000
							CHANNELS 3 Zrotation Yrotation Xrotation
							JOINT LeftHand
							{
								OFFSET 3.06552 -0.00000 -0.00000
								CHANNELS 3 Zrotation Yrotation Xrotation
								JOINT LeftFingerBase
								{
									OFFSET 0 0 0
									CHANNELS 3 Zrotation Yrotation Xrotation
									JOINT LeftHandIndex1
									{
										OFFSET 0.75304 -0.00000 0.00000
										CHANNELS 3 Zrotation Yrotation Xrotation
										End Site
										{
											OFFSET 0.60712 -0.00000 0.00000
										}
									}
								}
								JOINT LThumb
								{
									OFFSET 0 0 0
									CHANNELS 3 Zrotation Yrotation Xrotation
									End Site
									{
										OFFSET 0.61639 -0.00000 0.61639
									}
								}
							}
						}
					}
				}
				JOINT RightShoulder
				{
					OFFSET 0 0 0
					CHANNELS 3 Zrotation Yrotation Xrotation
					JOINT RightArm
					{
						OFFSET -2.60909 1.35448 0.21802
						CHANNELS 3 Zrotation Yrotation Xrotation
						JOINT RightForeArm
						{
							OFFSET -4.52172 -0.00000 -0.00000
							CHANNELS 3 Zrotation Yrotation Xrotation
							JOINT RightHand
							{
								OFFSET -2.89140 -0.00000 0.00000
								CHANNELS 3 Zrotation Yrotation Xrotation
								JOINT RightFingerBase
								{
									OFFSET 0 0 0
									CHANNELS 3 Zrotation Yrotation Xrotation
									JOINT RightHandIndex1
									{
										OFFSET -0.68054 -0.00000 0.00000
										CHANNELS 3 Zrotation Yrotation Xrotation
										End Site
										{
											OFFSET -0.54867 -0.00000 0.00000
										}
									}
								}
								JOINT RThumb
								{
									OFFSET 0 0 0
									CHANNELS 3 Zrotation Yrotation Xrotation
									End Site
									{
										OFFSET -0.55705 -0.00000 0.55705
									}
								}
							}
						}
					}
				}
			}
		}
	}
}
MOTION
Frames: 11
Frame Time: .0083333
8.2171 15.2950 -38.5136 8.5412 12.4641 360.9900 0.0000 0.0000 0.0000 -24.8127 -18.2278 -6.7416 2.3613 9.5812 27.6309 0.6638 -4.3596 -14.5323 2.9382 -10.5944 -30.9238 0.0000 0.0000 0.0000 24.3159 25.3483 4.6173 -3.1049 -10.8630 31.8191 -0.5238 -25.1063 -38.0626 -0.2280 -3.0737 8.4840 5.4249 -2.0445 9.3179 3.6160 -1.7211 -3.3356 1.0957 -1.0128 -8.8638 3.9950 1.6202 -11.8202 -15.5705 3.3872 9.0599 -5.2973 0.8230 5.0336 -0.0000 0.0000 0.0000 -83.4040 17.6401 -10.7567 18.6464 -28.9770 -4.8584 -0.0000 -0.0000 13.6291 8.4524 -24.0407 -3.4644 -7.1250 0.0000 -0.0000 -12.8242 6.2052 11.6661 -0.0000 0.0000 0.0000 88.3997 2.7453 -1.1583 -18.8713 29.2585 -4.9678 0.0000 0.0000 13.7119 -17.2014 -54.8138 14.1986 7.1250 -0.0000 -0.0000 73.2722 -78.1377 -61.3450
8.2246 15.2989 -38.5017 8.6991 12.0413 361.0670 0.0000 0.0000 0.0000 -24.9668 -17.8608 -6.8902 2.3760 9.6088 27.7191 0.6620 -4.2529 -14.5181 2.9737 -10.6524 -31.1162 0.0000 0.0000 0.0000 23.8731 25.1035 4.2060 -3.1399 -10.9182 32.0046 -0.4918 -24.7239 -37.4308 -0.1749 -2.6936 7.4268 5.1606 -1.9670 9.1333 3.7457 -1.6623 -3.2348 1.3587 -0.9629 -8.6307 3.9610 1.7339 -11.5636 -15.6053 3.5173 8.7803 -5.2866 0.9058 4.9183 0.0000 0.0000 0.0000 -83.3274 17.6913 -10.8897 18.5159 -28.8127 -4.7953 -0.0000 -0.0000 14.0179 7.9718 -24.1738 -3.2821 -7.1250 0.0000 -0.0000 -13.1192 6.1226 11.9708 0.0000 0.0000 0.0000 88.3900 2.6906 -2.2924 -18.0869 28.2682 -4.5903 0.0000 0.0000 15.7628 -12.8856 -51.7867 10.1898 7.1250 -0.0000 -0.0000 61.8141 -75.6646 -48.1308
8.2342 15.2980 -38.4880 8.8383 11.6585 361.0400 0.0000 0.0000 0.0000 -25.1464 -17.5519 -6.8816 2.3823 9.6206 27.7568 0.6568 -4.2449 -14.4607 2.7487 -10.2766 -29.8772 0.0000 0.0000 0.0000 23.4937 24.8113 3.8720 -3.1885 -10.9942 32.2603 -0.4639 -24.3401 -36.8128 -0.1384 -2.3977 6.6062 5.0171 -1.9136 9.1735 3.8143 -1.6103 -3.0699 1.4977 -0.9252 -8.4667 3.9078 1.9237 -11.8591 -15.4834 3.7701 8.7588 -5.2174 1.0236 4.9855 0.0000 0.0000 0.0000 -83.1839 17.6220 -10.7787 18.4283 -28.7022 -4.7532 -0.0000 -0.0000 14.4091 7.6680 -23.9448 -3.1277 -7.1250 0.0000 -0.0000 -13.3015 6.3757 12.0803 0.0000 0.0000 0.0000 88.3672 2.8454 -3.4190 -17.3175 27.2744 -4.2318 0.0000 0.0000 17.3779 -9.2153 -49.5104 7.0340 7.1250 -0.0000 -0.0000 56.6872 -73.2924 -41.2139
8.2426 15.2936 -38.4710 8.9531 11.3438 360.9800 0.0000 0.0000 0.0000 -25.3044 -17.2516 -6.8161 2.3845 9.6248 27.7699 0.6514 -4.2065 -14.4012 2.6732 -10.1463 -29.4517 0.0000 0.0000 0.0000 23.1571 24.4366 3.5559 -3.2438 -11.0796 32.5488 -0.4549 -23.8485 -36.1570 -0.1112 -2.1499 5.9201 4.8878 -1.8675 9.1660 3.8266 -1.5620 -3.1224 1.5766 -0.8956 -8.5138 4.0312 2.0356 -11.1714 -15.3870 3.8693 8.5826 -5.1957 1.1184 4.8223 -0.0000 0.0000 0.0000 -82.9515 18.1301 -10.0985 18.4804 -28.7679 -4.7782 -0.0000 -0.0000 14.6044 7.5424 -23.1458 -2.9793 -7.1250 0.0000 -0.0000 -13.3720 7.1675 11.9372 -0.0000 0.0000 0.0000 88.3744 2.4320 -4.4838 -16.7508 26.5281 -3.9754 0.0000 0.0000 18.6111 -8.3040 -48.6405 6.2519 7.1250 -0.0000 -0.0000 54.9012 -72.5214 -38.9321
8.2520 15.2955 -38.4578 9.1365 10.8671 360.9780 0.0000 0.0000 0.0000 -25.4918 -16.7920 -6.8803 2.3888 9.6328 27.7958 0.6382 -4.2457 -14.2485 2.6630 -10.1284 -29.3936 0.0000 0.0000 0.0000 22.5778 23.8734 3.0069 -3.3003 -11.1661 32.8420 -0.4853 -23.0266 -35.3128 -0.0877 -1.9096 5.2559 4.7492 -1.7940 9.2486 3.8110 -1.4763 -3.1327 1.6268 -0.8478 -8.5677 4.1747 2.1708 -10.8600 -15.3633 4.0209 8.5115 -5.1995 1.2149 4.7641 0.0000 -0.0000 0.0000 -82.7875 18.4232 -9.5520 18.5130 -28.8091 -4.7939 -0.0000 -0.0000 14.9720 7.1001 -22.7075 -2.7528 -7.1250 0.0000 -0.0000 -13.6430 7.6348 12.0657 0.0000 -0.0000 0.0000 88.2999 2.2079 -5.7189 -16.2419 25.8475 -3.7508 0.0000 0.0000 20.4849 -7.6466 -49.2744 5.8096 7.1250 -0.0000 -0.0000 57.1792 -72.6046 -40.9016
8.2619 15.2982 -38.4467 9.3257 10.5212 360.9510 0.0000 0.0000 0.0000 -25.6612 -16.2573 -6.9729 2.3959 9.6462 27.8384 0.6157 -4.5418 -13.9783 2.6922 -10.1792 -29.5590 0.0000 0.0000 0.0000 22.0971 23.4042 2.5989 -3.3562 -11.2504 33.1292 -0.5371 -22.3807 -34.8182 -0.0724 -1.7359 4.7764 4.5568 -1.7089 9.3027 3.8066 -1.3875 -3.0690 1.7140 -0.7941 -8.5230 4.5322 2.2492 -10.7487 -15.5626 4.0945 8.4937 -5.3192 1.2570 4.7583 -0.0000 -0.0000 0.0000 -82.6233 18.3536 -9.0887 18.4233 -28.6958 -4.7507 -0.0000 -0.0000 15.7004 6.4822 -22.9590 -2.5377 -7.1250 0.0000 -0.0000 -14.0231 7.4438 12.4776 -0.0000 -0.0000 0.0000 88.1650 2.0293 -7.1448 -15.7452 25.1739 -3.5369 0.0000 0.0000 22.8185 -7.6161 -50.4488 5.8865 7.1250 -0.0000 -0.0000 60.6279 -73.1379 -44.3943
8.2732 15.2983 -38.4377 9.4970 10.2277 360.9130 0.0000 0.0000 0.0000 -25.8309 -15.8566 -7.0509 2.4108 9.6738 27.9269 0.6055 -4.7215 -13.8560 2.7646 -10.3039 -29.9665 0.0000 0.0000 0.0000 21.7529 23.2399 2.3814 -3.4076 -11.3274 33.3920 -0.5840 -21.9228 -34.5362 -0.0728 -1.7407 4.7895 4.7049 -1.7002 9.5959 3.6002 -1.3420 -3.2483 1.4217 -0.7905 -8.8981 4.8949 2.2980 -10.1180 -15.4879 4.1063 8.5223 -5.3575 1.3045 4.6625 -0.0000 0.0000 0.0000 -82.1675 18.7461 -8.3007 18.3851 -28.6474 -4.7324 -0.0000 -0.0000 16.1003 5.8451 -23.2068 -2.3100 -7.1250 0.0000 -0.0000 -14.4125 7.2572 12.9021 -0.0000 0.0000 0.0000 88.2851 1.2240 -8.2339 -15.2582 24.5046 -3.3323 0.0000 0.0000 25.6316 -7.6813 -50.0317 5.9015 7.1250 -0.0000 -0.0000 59.3405 -72.9759 -43.1183
8.2852 15.3008 -38.4290 9.6231 9.8165 360.9770 0.0000 0.0000 0.0000 -25.9326 -15.6170 -7.2361 2.4356 9.7198 28.0740 0.6041 -4.7596 -13.8388 2.6493 -10.1044 -29.3153 0.0000 0.0000 0.0000 21.3677 23.1222 2.0039 -3.4556 -11.3984 33.6355 -0.6258 -21.4139 -34.1738 -0.0715 -1.7250 4.7461 4.5704 -1.6103 9.4231 3.6924 -1.2524 -3.1169 1.5683 -0.7344 -8.6468 4.6915 2.3594 -10.0824 -15.3202 4.2027 8.5299 -5.2611 1.3556 4.6611 0.0000 -0.0000 0.0000 -82.2272 18.5683 -7.4026 18.3866 -28.6494 -4.7332 -0.0000 -0.0000 16.3493 5.5127 -23.1582 -2.1737 -7.1250 0.0000 -0.0000 -14.6160 7.3319 13.0752 0.0000 -0.0000 0.0000 87.7972 1.0682 -8.2258 -15.4684 24.7945 -3.4200 0.0000 0.0000 26.2051 -0.8130 -51.0841 0.6326 7.1250 -0.0000 -0.0000 66.9058 -70.9678 -47.3936
8.2945 15.3024 -38.4143 9.6716 9.7618 360.9060 0.0000 0.0000 0.0000 -25.9794 -15.3901 -7.3139 2.4667 9.7771 28.2579 0.5960 -4.5647 -13.7492 3.2655 -11.1130 -32.6618 0.0000 0.0000 0.0000 21.2270 22.7676 1.8272 -3.5019 -11.4664 33.8694 -0.6355 -21.1883 -33.9649 -0.0628 -1.6165 4.4469 4.5972 -1.6423 9.5817 3.7039 -1.2730 -3.2163 1.5788 -0.7473 -8.8488 4.7469 2.3926 -9.7435 -15.2162 4.2485 8.6657 -5.2361 1.3946 4.6462 0.0000 0.0000 0.0000 -82.0384 18.9362 -6.0194 18.4711 -28.7561 -4.7737 -0.0000 -0.0000 16.5780 5.8693 -23.0193 -2.3020 -7.1250 0.0000 -0.0000 -14.3987 7.4371 12.8367 0.0000 0.0000 0.0000 87.4051 0.5113 -8.8587 -15.3717 24.6614 -3.3795 0.0000 0.0000 26.8763 4.2477 -58.2869 -3.6153 7.1250 -0.0000 -0.0000 89.4784 -70.7925 -69.0602
8.3034 15.3081 -38.4004 9.7623 9.2224 360.9270 0.0000 0.0000 0.0000 -26.0434 -14.8888 -7.5598 2.4931 9.8254 28.4131 0.5954 -4.2317 -13.7527 4.0504 -12.2272 -36.5406 0.0000 0.0000 0.0000 20.8905 22.6013 1.4166 -3.5575 -11.5471 34.1480 -0.5823 -20.8805 -33.2871 -0.0395 -1.2826 3.5267 4.7685 -1.5870 9.8991 3.5494 -1.1509 -3.4822 1.3181 -0.7088 -9.3323 4.9170 2.4843 -9.1829 -15.0272 4.3569 8.8456 -5.2003 1.4801 4.6124 -0.0000 0.0000 0.0000 -81.6571 19.6506 -4.6580 18.5847 -28.8994 -4.8285 -0.0000 -0.0000 16.6311 5.0947 -27.0726 -2.3235 -7.1250 0.0000 -0.0000 -14.8724 3.5814 14.4171 -0.0000 0.0000 0.0000 87.1780 -0.3340 -9.8147 -15.1657 24.3765 -3.2940 0.0000 0.0000 27.8620 4.7660 -57.2622 -4.0117 7.1250 -0.0000 -0.0000 86.7330 -70.5427 -65.8871
8.3184 15.3084 -38.3864 9.9159 9.2397 360.8410 0.0000 0.0000 0.0000 -26.1858 -14.8448 -7.4753 2.5148 9.8648 28.5399 0.5751 -4.9610 -13.5000 3.4740 -11.4254 -33.7283 0.0000 0.0000 0.0000 20.6208 22.2291 1.1981 -3.6272 -11.6471 34.4946 -0.5308 -20.8695 -32.9623 -0.0164 -0.8259 2.2700 4.7228 -1.7084 9.8493 3.6357 -1.3270 -3.2776 1.4578 -0.7846 -9.0783 4.7299 2.6555 -9.7687 -14.9774 4.6515 9.2059 -5.1315 1.5833 4.8495 0.0000 0.0000 0.0000 -81.8834 19.4171 -3.6805 18.6739 -29.0114 -4.8717 -0.0000 -0.0000 16.5434 5.0109 -28.3336 -2.3829 -7.1250 0.0000 -0.0000 -14.9383 2.3716 14.8266 0.0000 0.0000 0.0000 86.4420 -0.3412 -10.0023 -15.1543 24.3606 -3.2893 0.0000 0.0000 28.6002 2.5583 -53.7675 -2.0641 7.1250 -0.0000 -0.0000 76.1168 -70.6641 -55.4786
